Coordinates
version=1
nRows=30
nColumns=38
inDegrees=no

Units are S.I. units (second, meters, Newtons, ...)
If the header above contains a line with 'inDegrees', this indicates whether rotational values are in degrees (yes) or radians (no).

endheader
time	pelvis_tilt	pelvis_list	pelvis_rotation	pelvis_tx	pelvis_ty	pelvis_tz	hip_flexion_r	hip_adduction_r	hip_rotation_r	knee_angle_r	ankle_angle_r	subtalar_angle_r	mtp_angle_r	hip_flexion_l	hip_adduction_l	hip_rotation_l	knee_angle_l	ankle_angle_l	subtalar_angle_l	mtp_angle_l	lumbar_extension	lumbar_bending	lumbar_rotation	arm_flex_r	arm_add_r	arm_rot_r	elbow_flex_r	pro_sup_r	wrist_flex_r	wrist_dev_r	arm_flex_l	arm_add_l	arm_rot_l	elbow_flex_l	pro_sup_l	wrist_flex_l	wrist_dev_l
1.53	0.526443	1.48491	-2.17441	0.648994	0.525947	0.908743	-0.325105	-0.0518806	-0.342407	0.326232	0.326726	0	0	0.302677	0.030654	-0.273944	0.126325	0.0188497	0	0	-0.210475	-0.0576417	0.0442888	0.0880974	-0.364338	0.341892	0.787192	1.33384	0	0	-0.110492	-0.286792	0.595464	0.678304	1.06612	0	0
1.54	0.56202	1.48203	-2.2152	0.649488	0.513697	0.907901	-0.324683	-0.0662113	-0.342517	0.355082	0.321527	0	0	0.303699	0.0339731	-0.282185	0.14688	-0.00606209	0	0	-0.205753	-0.0653002	0.0464333	0.0807351	-0.360028	0.348926	0.7714	1.34263	0	0	-0.111545	-0.290624	0.594236	0.68123	1.04584	0	0
1.55	0.596208	1.47759	-2.25396	0.650114	0.501334	0.907459	-0.32369	-0.0821884	-0.341501	0.386657	0.312322	0	0	0.303408	0.0366241	-0.295353	0.169473	-0.0305398	0	0	-0.202184	-0.0738981	0.0473599	0.0737906	-0.355154	0.35648	0.754214	1.35073	0	0	-0.112802	-0.294532	0.591885	0.683992	1.02695	0	0
1.56	0.627553	1.47202	-2.28879	0.650863	0.488973	0.907387	-0.321064	-0.0993432	-0.339427	0.422003	0.298481	0	0	0.305352	0.0372705	-0.314018	0.202507	-0.0418095	0	0	-0.199721	-0.0831848	0.0467321	0.0677441	-0.349763	0.365427	0.735128	1.35945	0	0	-0.113833	-0.299192	0.590575	0.68727	1.00422	0	0
1.57	0.656331	1.46674	-2.31974	0.651662	0.476663	0.907532	-0.315055	-0.116475	-0.335934	0.462001	0.278291	0	0	0.313526	0.0340217	-0.337551	0.251931	-0.0345286	0	0	-0.197079	-0.0922899	0.0446734	0.062751	-0.344686	0.379519	0.714485	1.35994	0	0	-0.114435	-0.305472	0.59309	0.692346	0.967513	0	0
1.58	0.680635	1.46059	-2.34426	0.652686	0.464343	0.908074	-0.307279	-0.134009	-0.331273	0.505464	0.250917	0	0	0.319953	0.032613	-0.350665	0.300361	-0.0216577	0	0	-0.195577	-0.101513	0.0411115	0.0565521	-0.339122	0.390512	0.694956	1.36266	0	0	-0.113788	-0.312183	0.597221	0.696617	0.934096	0	0
1.59	0.709505	1.45532	-2.37123	0.654018	0.452162	0.908765	-0.293638	-0.152043	-0.325574	0.555322	0.214604	0	0	0.326403	0.0330307	-0.357078	0.346067	-0.00623356	0	0	-0.193391	-0.11003	0.0349458	0.0509638	-0.334283	0.40581	0.675883	1.35555	0	0	-0.113391	-0.31753	0.595394	0.698683	0.924957	0	0
1.6	0.74544	1.45086	-2.40374	0.655649	0.440075	0.909531	-0.273745	-0.170824	-0.317884	0.610638	0.168263	0	0	0.330445	0.036383	-0.358601	0.383003	0.00910004	0	0	-0.189964	-0.118016	0.0273857	0.0445398	-0.330108	0.42129	0.658607	1.34687	0	0	-0.112266	-0.323156	0.595639	0.700526	0.916874	0	0
1.61	0.789899	1.44997	-2.44346	0.657516	0.42798	0.909948	-0.246032	-0.187679	-0.307956	0.669833	0.109268	0	0	0.337299	0.0371035	-0.365921	0.418952	0.0266569	0	0	-0.182432	-0.123308	0.0188572	0.0372387	-0.327641	0.440626	0.643313	1.33353	0	0	-0.111528	-0.329275	0.598241	0.703532	0.907052	0	0
1.62	0.852048	1.44667	-2.49946	0.65966	0.416211	0.910623	-0.215199	-0.207336	-0.296646	0.73031	0.0489207	0	0	0.329877	0.0532573	-0.349955	0.418801	0.030557	0	0	-0.175459	-0.13156	0.00935964	0.0288525	-0.324821	0.455089	0.630648	1.32527	0	0	-0.108757	-0.33594	0.601813	0.706223	0.901406	0	0
1.63	0.899094	1.45478	-2.54067	0.661685	0.404101	0.909959	-0.176494	-0.214063	-0.280745	0.790241	-0.0142009	0	0	0.345097	0.0381809	-0.385272	0.465223	0.0539398	0	0	-0.160457	-0.12784	0.00241426	0.0167457	-0.326984	0.47357	0.625078	1.31192	0	0	-0.108148	-0.342438	0.60729	0.71253	0.89356	0	0
1.64	0.970244	1.45588	-2.60626	0.663799	0.392608	0.909909	-0.137323	-0.228349	-0.265852	0.850425	-0.0745993	0	0	0.341325	0.0468726	-0.385747	0.467522	0.0610149	0	0	-0.149087	-0.131433	-0.00492261	0.00603773	-0.327409	0.488462	0.619286	1.30167	0	0	-0.104511	-0.350012	0.613805	0.718413	0.887833	0	0
1.65	1.04021	1.45433	-2.67121	0.665802	0.381382	0.909946	-0.0972203	-0.246326	-0.254958	0.911669	-0.131966	0	0	0.333698	0.0593631	-0.382698	0.463448	0.0679284	0	0	-0.139463	-0.136975	-0.0117255	-0.00476096	-0.327468	0.499666	0.615491	1.29539	0	0	-0.0999899	-0.358381	0.618763	0.725864	0.884995	0	0
1.66	1.07037	1.44383	-2.6968	0.667618	0.370885	0.911681	-0.0668922	-0.263048	-0.233342	0.963007	-0.185666	0	0	0.299759	0.098224	-0.326503	0.410925	0.0560938	0	0	-0.140966	-0.148982	-0.0197645	-0.0112873	-0.324042	0.507243	0.607862	1.29094	0	0	-0.0915883	-0.366809	0.621263	0.73048	0.885276	0	0
1.67	1.09541	1.44544	-2.71795	0.669318	0.359728	0.911471	-0.0291559	-0.279027	-0.233328	1.02095	-0.229373	0	0	0.305337	0.0848495	-0.369675	0.450596	0.0818151	0	0	-0.13422	-0.148353	-0.0248934	-0.023585	-0.323677	0.502112	0.607398	1.31699	0	0	-0.0868427	-0.37449	0.623173	0.739077	0.886629	0	0
1.68	1.0796	1.44222	-2.69972	0.670638	0.349125	0.912734	-0.00201111	-0.291551	-0.226175	1.06695	-0.253687	0	0	0.289886	0.0897452	-0.367729	0.45325	0.0937296	0	0	-0.136546	-0.150171	-0.0311036	-0.0295206	-0.327499	0.528903	0.609601	1.27334	0	0	-0.0805331	-0.381794	0.621333	0.745452	0.897467	0	0
1.69	1.00355	1.43277	-2.62236	0.671792	0.339408	0.916299	0.0118658	-0.2846	-0.187159	1.09931	-0.250062	0	0	0.24388	0.117675	-0.307277	0.402606	0.0799182	0	0	-0.153495	-0.153517	-0.0370497	-0.030701	-0.322679	0.527403	0.598931	1.28906	0	0	-0.0673943	-0.38684	0.620402	0.744945	0.896359	0	0
1.7	0.951825	1.43771	-2.56633	0.673316	0.329177	0.917515	0.0374954	-0.279822	-0.175946	1.14091	-0.225544	0	0	0.24168	0.0950169	-0.347836	0.439929	0.103412	0	0	-0.157162	-0.143265	-0.0436877	-0.0369408	-0.324194	0.530635	0.598387	1.293	0	0	-0.0587452	-0.390706	0.618322	0.747619	0.898481	0	0
1.71	0.896312	1.43535	-2.5071	0.674622	0.319351	0.919774	0.0588309	-0.280928	-0.165353	1.17894	-0.191833	0	0	0.217831	0.0965925	-0.340955	0.432451	0.109277	0	0	-0.166675	-0.139249	-0.0518832	-0.0391803	-0.322251	0.532581	0.592047	1.31316	0	0	-0.0509477	-0.391186	0.597958	0.743934	0.953993	0	0
1.72	0.847098	1.42896	-2.4541	0.675697	0.309868	0.922753	0.0772408	-0.284592	-0.155817	1.20973	-0.163778	0	0	0.177653	0.117044	-0.29114	0.388469	0.0998693	0	0	-0.178721	-0.138997	-0.0598791	-0.0402694	-0.318808	0.536959	0.584748	1.31659	0	0	-0.0394503	-0.395502	0.591739	0.742414	0.962193	0	0
1.73	0.798266	1.42898	-2.40006	0.677224	0.300363	0.924967	0.0984587	-0.282384	-0.149521	1.23421	-0.14148	0	0	0.154798	0.115661	-0.287835	0.378825	0.104902	0	0	-0.185563	-0.13166	-0.0681817	-0.0428381	-0.318377	0.541163	0.581265	1.31945	0	0	-0.0287872	-0.397984	0.585589	0.740882	0.968266	0	0
1.74	0.73672	1.4303	-2.33294	0.679866	0.290935	0.927231	0.118882	-0.290229	-0.140649	1.25075	-0.114848	0	0	0.130637	0.114795	-0.282056	0.36589	0.107568	0	0	-0.192349	-0.119658	-0.0769979	-0.0448859	-0.319931	0.545388	0.578039	1.32274	0	0	-0.0184332	-0.397773	0.575976	0.739026	0.978559	0	0
1.75	0.685035	1.43104	-2.27677	0.681347	0.281591	0.929455	0.139373	-0.286202	-0.13571	1.26381	-0.0964698	0	0	0.106649	0.113058	-0.277187	0.350923	0.10997	0	0	-0.197528	-0.11058	-0.0846868	-0.047128	-0.320064	0.548887	0.57613	1.32477	0	0	-0.00889845	-0.399289	0.567094	0.73721	0.988252	0	0
1.76	0.633426	1.43285	-2.22011	0.683073	0.272106	0.931515	0.159743	-0.280491	-0.132646	1.27133	-0.0778312	0	0	0.0850639	0.109871	-0.271401	0.337489	0.112515	0	0	-0.201236	-0.100543	-0.0922046	-0.0499878	-0.319787	0.548059	0.575004	1.33147	0	0	0.001328	-0.40311	0.566745	0.739008	0.970986	0	0
1.77	0.580219	1.43486	-2.16173	0.684154	0.263327	0.933656	0.179244	-0.274018	-0.131315	1.27357	-0.0594493	0	0	0.0633667	0.106341	-0.263831	0.322211	0.113645	0	0	-0.204791	-0.0902186	-0.100859	-0.0517074	-0.321501	0.55594	0.577841	1.3235	0	0	0.00823174	-0.402645	0.544757	0.736969	1.00318	0	0
1.78	0.533795	1.43871	-2.1104	0.685302	0.254454	0.935418	0.201135	-0.266803	-0.130944	1.27169	-0.0401136	0	0	0.0468768	0.10118	-0.258935	0.311455	0.116469	0	0	-0.205423	-0.0799995	-0.107559	-0.0551367	-0.320777	0.549889	0.579238	1.33733	0	0	0.0178296	-0.407007	0.542497	0.740643	0.986293	0	0
1.79	0.480358	1.44112	-2.05078	0.686637	0.245601	0.937341	0.218881	-0.259807	-0.134136	1.26345	-0.0204859	0	0	0.0273909	0.0965365	-0.250089	0.296895	0.116631	0	0	-0.207468	-0.0693613	-0.116682	-0.0576065	-0.323121	0.556872	0.585875	1.31777	0	0	0.023707	-0.407082	0.519696	0.74219	1.00761	0	0
1.8	0.428883	1.44482	-1.99287	0.687718	0.236839	0.938983	0.23764	-0.252123	-0.138537	1.25092	-0.00243469	0	0	0.0118078	0.0905155	-0.244168	0.286251	0.118428	0	0	-0.207449	-0.0588852	-0.124879	-0.0607641	-0.323487	0.556485	0.590541	1.31342	0	0	0.031176	-0.410363	0.509094	0.746545	1.00815	0	0
1.81	0.374772	1.44656	-1.93259	0.688864	0.228244	0.940704	0.253334	-0.245204	-0.144556	1.23328	0.0158378	0	0	-0.00715096	0.0858876	-0.234744	0.270999	0.117532	0	0	-0.209673	-0.0489036	-0.132889	-0.064326	-0.322967	0.547703	0.597022	1.31741	0	0	0.036998	-0.411448	0.487175	0.752217	1.01581	0	0
1.82	0.324414	1.44893	-1.87671	0.689804	0.219803	0.942146	0.269837	-0.238372	-0.151097	1.21207	0.0330121	0	0	-0.0231686	0.0807894	-0.227683	0.258836	0.117928	0	0	-0.210687	-0.039558	-0.13973	-0.067383	-0.323158	0.543831	0.604118	1.31295	0	0	0.0435641	-0.414178	0.471443	0.759545	1.01487	0	0
